# Blender 4.1.1
# www.blender.org
mtllib sphere.mtl
o Sphere
v 0.293893 0.866025 -0.404509
v 0.509037 0.500000 -0.700629
v 0.587785 0.000000 -0.809017
v 0.509037 -0.500000 -0.700629
v 0.293893 -0.866025 -0.404509
v 0.475528 0.866025 -0.154509
v 0.823639 0.500000 -0.267617
v 0.951057 0.000000 -0.309017
v 0.823639 -0.500000 -0.267617
v 0.475528 -0.866025 -0.154509
v 0.475528 0.866025 0.154508
v 0.823639 0.500000 0.267617
v 0.951057 0.000000 0.309017
v 0.823639 -0.500000 0.267617
v 0.475528 -0.866025 0.154508
v 0.293893 0.866025 0.404509
v 0.509037 0.500000 0.700629
v 0.587785 0.000000 0.809017
v 0.509037 -0.500000 0.700629
v 0.293893 -0.866025 0.404509
v 0.000000 0.866025 0.500000
v 0.000000 0.500000 0.866025
v 0.000000 0.000000 1.000000
v 0.000000 -0.500000 0.866025
v 0.000000 -0.866025 0.500000
v -0.293893 0.866025 0.404509
v -0.509037 0.500000 0.700629
v -0.587785 0.000000 0.809017
v -0.509037 -0.500000 0.700629
v -0.293893 -0.866025 0.404509
v 0.000000 1.000000 0.000000
v -0.475528 0.866025 0.154509
v -0.823639 0.500000 0.267617
v -0.951057 0.000000 0.309017
v -0.823639 -0.500000 0.267617
v -0.475528 -0.866025 0.154509
v 0.000000 -1.000000 0.000000
v -0.475528 0.866025 -0.154508
v -0.823639 0.500000 -0.267617
v -0.951057 0.000000 -0.309017
v -0.823639 -0.500000 -0.267617
v -0.475528 -0.866025 -0.154508
v -0.293893 0.866025 -0.404509
v -0.509037 0.500000 -0.700629
v -0.587785 0.000000 -0.809017
v -0.509037 -0.500000 -0.700629
v -0.293893 -0.866025 -0.404509
v -0.000000 0.866025 -0.500000
v -0.000000 0.500000 -0.866025
v -0.000000 0.000000 -1.000000
v -0.000000 -0.500000 -0.866025
v -0.000000 -0.866025 -0.500000
vn 0.2994 0.2469 -0.9216
vn 0.0838 0.9625 -0.2579
vn 0.0838 -0.9625 -0.2579
vn 0.2994 -0.2469 -0.9216
vn 0.2239 0.6892 -0.6892
vn 0.2239 -0.6892 -0.6892
vn 0.2194 -0.9625 -0.1594
vn 0.7840 -0.2469 -0.5696
vn 0.5862 0.6892 -0.4259
vn 0.5862 -0.6892 -0.4259
vn 0.7840 0.2469 -0.5696
vn 0.2194 0.9625 -0.1594
vn 0.2712 -0.9625 -0.0000
vn 0.9690 -0.2469 -0.0000
vn 0.7246 0.6892 -0.0000
vn 0.7246 -0.6892 -0.0000
vn 0.9690 0.2469 -0.0000
vn 0.2712 0.9625 -0.0000
vn 0.7840 -0.2469 0.5696
vn 0.5862 0.6892 0.4259
vn 0.5862 -0.6892 0.4259
vn 0.7840 0.2469 0.5696
vn 0.2194 0.9625 0.1594
vn 0.2194 -0.9625 0.1594
vn 0.2239 0.6892 0.6892
vn 0.2239 -0.6892 0.6892
vn 0.2994 0.2469 0.9216
vn 0.0838 0.9625 0.2579
vn 0.0838 -0.9625 0.2579
vn 0.2994 -0.2469 0.9216
vn -0.2239 -0.6892 0.6892
vn -0.2994 0.2469 0.9216
vn -0.0838 0.9625 0.2579
vn -0.0838 -0.9625 0.2579
vn -0.2994 -0.2469 0.9216
vn -0.2239 0.6892 0.6892
vn -0.5862 -0.6892 0.4259
vn -0.7840 0.2469 0.5696
vn -0.2194 0.9625 0.1594
vn -0.2194 -0.9625 0.1594
vn -0.7840 -0.2469 0.5696
vn -0.5862 0.6892 0.4259
vn -0.7246 -0.6892 -0.0000
vn -0.9690 0.2469 -0.0000
vn -0.2712 0.9625 -0.0000
vn -0.2712 -0.9625 -0.0000
vn -0.9690 -0.2469 -0.0000
vn -0.7246 0.6892 -0.0000
vn -0.5862 -0.6892 -0.4259
vn -0.7840 0.2469 -0.5696
vn -0.2194 0.9625 -0.1594
vn -0.2194 -0.9625 -0.1594
vn -0.7840 -0.2469 -0.5696
vn -0.5862 0.6892 -0.4259
vn -0.2994 0.2469 -0.9216
vn -0.0838 0.9625 -0.2579
vn -0.0838 -0.9625 -0.2579
vn -0.2994 -0.2469 -0.9216
vn -0.2239 0.6892 -0.6892
vn -0.2239 -0.6892 -0.6892
vt 0.700000 0.500000
vt 0.700000 0.666667
vt 0.600000 0.666667
vt 0.600000 0.500000
vt 0.700000 0.833333
vt 0.650000 1.000000
vt 0.600000 0.833333
vt 0.650000 0.000000
vt 0.700000 0.166667
vt 0.600000 0.166667
vt 0.700000 0.333333
vt 0.600000 0.333333
vt 0.550000 0.000000
vt 0.500000 0.166667
vt 0.500000 0.500000
vt 0.500000 0.333333
vt 0.500000 0.833333
vt 0.500000 0.666667
vt 0.550000 1.000000
vt 0.450000 0.000000
vt 0.400000 0.166667
vt 0.400000 0.500000
vt 0.400000 0.333333
vt 0.400000 0.833333
vt 0.400000 0.666667
vt 0.450000 1.000000
vt 0.300000 0.500000
vt 0.300000 0.333333
vt 0.300000 0.833333
vt 0.300000 0.666667
vt 0.300000 0.166667
vt 0.350000 1.000000
vt 0.350000 0.000000
vt 0.200000 0.833333
vt 0.200000 0.666667
vt 0.200000 0.333333
vt 0.200000 0.166667
vt 0.200000 0.500000
vt 0.250000 1.000000
vt 0.250000 0.000000
vt 0.100000 0.333333
vt 0.100000 0.166667
vt 0.100000 0.666667
vt 0.100000 0.500000
vt 0.150000 1.000000
vt 0.100000 0.833333
vt 0.150000 0.000000
vt 0.000000 0.333333
vt 0.000000 0.166667
vt 0.000000 0.666667
vt 0.000000 0.500000
vt 0.050000 1.000000
vt 0.000000 0.833333
vt 0.050000 0.000000
vt 1.000000 0.166667
vt 1.000000 0.333333
vt 0.900000 0.333333
vt 0.900000 0.166667
vt 1.000000 0.500000
vt 1.000000 0.666667
vt 0.900000 0.666667
vt 0.900000 0.500000
vt 1.000000 0.833333
vt 0.950000 1.000000
vt 0.900000 0.833333
vt 0.950000 0.000000
vt 0.800000 0.333333
vt 0.800000 0.166667
vt 0.800000 0.666667
vt 0.800000 0.500000
vt 0.850000 1.000000
vt 0.800000 0.833333
vt 0.850000 0.000000
vt 0.750000 1.000000
vt 0.750000 0.000000
s 0
f 50/1/1 49/2/1 2/3/1 3/4/1
f 48/5/2 31/6/2 1/7/2
f 37/8/3 52/9/3 5/10/3
f 51/11/4 50/1/4 3/4/4 4/12/4
f 49/2/5 48/5/5 1/7/5 2/3/5
f 52/9/6 51/11/6 4/12/6 5/10/6
f 37/13/7 5/10/7 10/14/7
f 4/12/8 3/4/8 8/15/8 9/16/8
f 2/3/9 1/7/9 6/17/9 7/18/9
f 5/10/10 4/12/10 9/16/10 10/14/10
f 3/4/11 2/3/11 7/18/11 8/15/11
f 1/7/12 31/19/12 6/17/12
f 37/20/13 10/14/13 15/21/13
f 9/16/14 8/15/14 13/22/14 14/23/14
f 7/18/15 6/17/15 11/24/15 12/25/15
f 10/14/16 9/16/16 14/23/16 15/21/16
f 8/15/17 7/18/17 12/25/17 13/22/17
f 6/17/18 31/26/18 11/24/18
f 14/23/19 13/22/19 18/27/19 19/28/19
f 12/25/20 11/24/20 16/29/20 17/30/20
f 15/21/21 14/23/21 19/28/21 20/31/21
f 13/22/22 12/25/22 17/30/22 18/27/22
f 11/24/23 31/32/23 16/29/23
f 37/33/24 15/21/24 20/31/24
f 17/30/25 16/29/25 21/34/25 22/35/25
f 20/31/26 19/28/26 24/36/26 25/37/26
f 18/27/27 17/30/27 22/35/27 23/38/27
f 16/29/28 31/39/28 21/34/28
f 37/40/29 20/31/29 25/37/29
f 19/28/30 18/27/30 23/38/30 24/36/30
f 25/37/31 24/36/31 29/41/31 30/42/31
f 23/38/32 22/35/32 27/43/32 28/44/32
f 21/34/33 31/45/33 26/46/33
f 37/47/34 25/37/34 30/42/34
f 24/36/35 23/38/35 28/44/35 29/41/35
f 22/35/36 21/34/36 26/46/36 27/43/36
f 30/42/37 29/41/37 35/48/37 36/49/37
f 28/44/38 27/43/38 33/50/38 34/51/38
f 26/46/39 31/52/39 32/53/39
f 37/54/40 30/42/40 36/49/40
f 29/41/41 28/44/41 34/51/41 35/48/41
f 27/43/42 26/46/42 32/53/42 33/50/42
f 36/55/43 35/56/43 41/57/43 42/58/43
f 34/59/44 33/60/44 39/61/44 40/62/44
f 32/63/45 31/64/45 38/65/45
f 37/66/46 36/55/46 42/58/46
f 35/56/47 34/59/47 40/62/47 41/57/47
f 33/60/48 32/63/48 38/65/48 39/61/48
f 42/58/49 41/57/49 46/67/49 47/68/49
f 40/62/50 39/61/50 44/69/50 45/70/50
f 38/65/51 31/71/51 43/72/51
f 37/73/52 42/58/52 47/68/52
f 41/57/53 40/62/53 45/70/53 46/67/53
f 39/61/54 38/65/54 43/72/54 44/69/54
f 45/70/55 44/69/55 49/2/55 50/1/55
f 43/72/56 31/74/56 48/5/56
f 37/75/57 47/68/57 52/9/57
f 46/67/58 45/70/58 50/1/58 51/11/58
f 44/69/59 43/72/59 48/5/59 49/2/59
f 47/68/60 46/67/60 51/11/60 52/9/60
